<svg xmlns="http://www.w3.org/2000/svg" width="32" height="32" viewBox="0 0 32 32" id="secure-card">
  <g transform="translate(2885.183 -1229.113)">
    <g transform="translate(-1549.861 564.449)">
      <path fill="#b0dae4" d="m -1311.1384,671.16487 c 0.7296,0 1.317,0.5903 1.317,1.3235 v 12.353 c 0,0.7332 -0.5874,1.3235 -1.317,1.3235 -6.7888,0 -13.5772,0 -20.366,0 -0.7296,0 -1.317,-0.5903 -1.317,-1.3235 v -12.353 c 0,-0.7332 0.5874,-1.3235 1.317,-1.3235 6.7888,0 13.5772,0 20.366,0 z"></path>
      <path fill="#f6c490" d="m -1305.9376,681.83147 c -1.4683,0 -2.8722,-0.6033 -3.8844,-1.6666 -1.0393,1.0677 -2.4097,1.6578 -3.8829,1.6666 -0.9259,7.0371 3.8831,8.3334 3.8831,8.3334 0,0 4.8091,-1.2963 3.8842,-8.3334 z"></path>
      <path fill="#a0a0a0" d="m -1309.8214,677.16487 h -23 v -3 h 23 z"></path>
      <path fill="#586597" d="m -1331.4952,670.66397 c -1.0028,0 -1.8262,0.822 -1.8262,1.8242 v 12.3536 c 0,1.0022 0.8234,1.8222 1.8262,1.8222 h 16.4238 v -1 h -16.4238 c -0.4675,0 -0.8262,-0.3581 -0.8262,-0.8222 v -12.3536 c 0,-0.4641 0.3587,-0.8242 0.8262,-0.8242 h 20.3476 c 0.4675,0 0.8262,0.3601 0.8262,0.8242 v 6.1758 h 1 v -6.1758 c 0,-1.0022 -0.8234,-1.8242 -1.8262,-1.8242 z" color="#000" font-family="sans-serif" font-weight="400" overflow="visible" style="line-height:normal;font-variant-ligatures:normal;font-variant-position:normal;font-variant-caps:normal;font-variant-numeric:normal;font-variant-alternates:normal;font-feature-settings:normal;text-indent:0;text-align:start;text-decoration-line:none;text-decoration-style:solid;text-decoration-color:#000;text-transform:none;text-orientation:mixed;shape-padding:0;isolation:auto;mix-blend-mode:normal"></path>
      <path fill="#586597" d="M-1332.8214 673.66397v1h23v-1zM-1332.8214 676.66397v1h23v-1z" color="#000" font-family="sans-serif" font-weight="400" overflow="visible" style="line-height:normal;font-variant-ligatures:normal;font-variant-position:normal;font-variant-caps:normal;font-variant-numeric:normal;font-variant-alternates:normal;font-feature-settings:normal;text-indent:0;text-align:start;text-decoration-line:none;text-decoration-style:solid;text-decoration-color:#000;text-transform:none;text-orientation:mixed;shape-padding:0;isolation:auto;mix-blend-mode:normal"></path>
      <rect width="3" height="3" x="-1316.821" y="680.165" fill="#fbd67e"></rect>
      <path fill="#586597" d="m -1316.8223,679.66406 a 0.50004997,0.50004997 0 0 0 -0.5,0.5 v 3 a 0.50004997,0.50004997 0 0 0 0.5,0.5 h 1.5 v -1 h -1 v -2 h 2.5 v -1 z" color="#000" font-family="sans-serif" font-weight="400" overflow="visible" style="line-height:normal;font-variant-ligatures:normal;font-variant-position:normal;font-variant-caps:normal;font-variant-numeric:normal;font-variant-alternates:normal;font-feature-settings:normal;text-indent:0;text-align:start;text-decoration-line:none;text-decoration-style:solid;text-decoration-color:#000;text-transform:none;text-orientation:mixed;shape-padding:0;isolation:auto;mix-blend-mode:normal"></path>
      <path fill="#586597" fill-rule="evenodd" d="m -1328.8214,682.66397 v 1 h 5 v -1 z" color="#000" font-family="sans-serif" font-weight="400" overflow="visible" style="line-height:normal;font-variant-ligatures:normal;font-variant-position:normal;font-variant-caps:normal;font-variant-numeric:normal;font-variant-alternates:normal;font-feature-settings:normal;text-indent:0;text-align:start;text-decoration-line:none;text-decoration-style:solid;text-decoration-color:#000;text-transform:none;text-orientation:mixed;shape-padding:0;isolation:auto;mix-blend-mode:normal"></path>
      <path fill="#586597" d="m -1309.8175,679.66397 c -0.1368,0 -0.2681,0.054 -0.3633,0.1524 -0.9502,0.9762 -2.1858,1.5076 -3.5273,1.5156 -0.2492,0 -0.4591,0.1866 -0.4922,0.4336 -0.4781,3.6335 0.5392,5.9003 1.7187,7.207 1.1796,1.3068 2.5293,1.6758 2.5293,1.6758 0.085,0.023 0.1747,0.023 0.2598,0 0,0 1.3516,-0.369 2.5313,-1.6758 1.1796,-1.3067 2.1962,-3.5735 1.7187,-7.207 -0.033,-0.2477 -0.2442,-0.4329 -0.4941,-0.4336 -1.3315,0 -2.6053,-0.5472 -3.5235,-1.5117 -0.093,-0.098 -0.222,-0.1547 -0.3574,-0.1563 z m -0.01,1.1875 c 0.9417,0.8492 2.2128,1.3937 3.4414,1.4531 0.3244,3.1496 -0.5642,4.9421 -1.5176,5.9981 -0.8942,0.9906 -1.7381,1.269 -1.9179,1.3242 -0.1783,-0.055 -1.0229,-0.3325 -1.918,-1.3242 -0.9532,-1.056 -1.8425,-2.8407 -1.5176,-5.9903 1.2587,-0.1189 2.4104,-0.5547 3.4297,-1.4609 z" color="#000" font-family="sans-serif" font-weight="400" overflow="visible" style="line-height:normal;font-variant-ligatures:normal;font-variant-position:normal;font-variant-caps:normal;font-variant-numeric:normal;font-variant-alternates:normal;font-feature-settings:normal;text-indent:0;text-align:start;text-decoration-line:none;text-decoration-style:solid;text-decoration-color:#000;text-transform:none;text-orientation:mixed;shape-padding:0;isolation:auto;mix-blend-mode:normal"></path>
    </g>
    <path fill="#586597" d="m -2858.1936,1248.1107 a 0.50005,0.50005 0 0 0 -0.3437,0.1523 l -1.6465,1.6465 -0.6465,-0.6465 a 0.50005,0.50005 0 1 0 -0.707,0.7071 l 1,1 a 0.50005,0.50005 0 0 0 0.707,0 l 2,-2 a 0.50005,0.50005 0 0 0 -0.3633,-0.8594 z" color="#000" font-family="sans-serif" font-weight="400" overflow="visible" style="line-height:normal;font-variant-ligatures:normal;font-variant-position:normal;font-variant-caps:normal;font-variant-numeric:normal;font-variant-alternates:normal;font-feature-settings:normal;text-indent:0;text-align:start;text-decoration-line:none;text-decoration-style:solid;text-decoration-color:#000;text-transform:none;text-orientation:mixed;shape-padding:0;isolation:auto;mix-blend-mode:normal"></path>
  </g>
</svg>
